# xmcd CD database file generated by OrangeCD 5.2
#
# Track frame offsets:
#	150
#	13663
#	27135
#	40554
#	54213
#	75643
#	93502
#	104145
#	120995
#	138118
#	147070
#	155343
#	164460
#	182997
#
# Disc length: 2685 seconds
#
# Revision: 0
# Processed by: cddbd v1.5.1PL2 Copyright (c) Steve Scherf et al.
# Submitted via: OrangeCD 5.2
#
DISCID=a80a7b0e
DTITLE=Johnny Cash - Live In Praque
DYEAR=1900
DGENRE=Country
TTITLE0=Opening/Ring Of Fire
TTITLE1=Folsom Prison Blues
TTITLE2=I Still Miss Someone
TTITLE3=Big River
TTITLE4=I Ride An Old Paint
TTITLE5=Sunday Morning Coming Down
TTITLE6=I Walk The Line
TTITLE7=Last Dance
TTITLE8=City Of New Orleans
TTITLE9=Hey Porter
TTITLE10=Wreck Of The Old '97
TTITLE11=Casey Jones
TTITLE12=Orange Blossom Special
TTITLE13=Wabash Cannonball
EXTD=
EXTT0=
EXTT1=
EXTT2=
EXTT3=
EXTT4=
EXTT5=
EXTT6=
EXTT7=
EXTT8=
EXTT9=
EXTT10=
EXTT11=
EXTT12=
EXTT13=
PLAYORDER=
